<svg xmlns="http://www.w3.org/2000/svg" version="1.1" xmlns:xlink="http://www.w3.org/1999/xlink" xmlns:svgjs="http://svgjs.dev/svgjs" width="2000" height="1999" viewBox="0 0 2000 1999"><g transform="matrix(1,0,0,1,-0.431486880466764,-0.4312711370263287)"><svg viewBox="0 0 343 343" data-background-color="#dedede" preserveAspectRatio="xMidYMid meet" height="1999" width="2000" xmlns="http://www.w3.org/2000/svg" xmlns:xlink="http://www.w3.org/1999/xlink"><g id="tight-bounds" transform="matrix(1,0,0,1,0.0740000000000407,0.07400000000001228)"><svg viewBox="0 0 342.85155851775386 342.85155851775386" height="342.85155851775386" width="342.85155851775386"><g><svg></svg></g><g><svg viewBox="0 0 342.85155851775386 342.85155851775386" height="342.85155851775386" width="342.85155851775386"><g><path d="M0 171.426c0-94.676 76.75-171.426 171.426-171.426 94.676 0 171.426 76.75 171.426 171.426 0 94.676-76.75 171.426-171.426 171.426-94.676 0-171.426-76.75-171.426-171.426zM171.426 334.986c90.332 0 163.56-73.228 163.56-163.56 0-90.332-73.228-163.56-163.56-163.561-90.332 0-163.56 73.228-163.561 163.561 0 90.332 73.228 163.56 163.561 163.56z" data-fill-palette-color="tertiary" fill="#000000" stroke="transparent"></path><ellipse rx="164.56874808852186" ry="164.56874808852186" cx="171.42577925887693" cy="171.42577925887693" fill="#000000" stroke="transparent" stroke-width="0" fill-opacity="1" data-fill-palette-color="tertiary"></ellipse></g><g transform="matrix(1,0,0,1,64.84655864529837,127.81641801807652)"><svg viewBox="0 0 213.1584412271571 87.2187224816008" height="87.2187224816008" width="213.1584412271571"><g><svg viewBox="0 0 213.1584412271571 87.2187224816008" height="87.2187224816008" width="213.1584412271571"><g><svg viewBox="0 0 213.1584412271571 87.2187224816008" height="87.2187224816008" width="213.1584412271571"><g><svg viewBox="0 0 213.1584412271571 87.2187224816008" height="87.2187224816008" width="213.1584412271571"><g id="textblocktransform"><svg viewBox="0 0 213.1584412271571 87.2187224816008" height="87.2187224816008" width="213.1584412271571" id="textblock"><g><svg viewBox="0 0 213.1584412271571 87.2187224816008" height="87.2187224816008" width="213.1584412271571"><g transform="matrix(1,0,0,1,0,0)"><svg width="213.1584412271571" viewBox="4.150000095367432 -33.29999923706055 82.83999633789062 33.89999771118164" height="87.2187224816008" data-palette-color="#dedede"><path d="M13.2 0L4.15 0 4.15-32.7 12.9-32.7Q20.4-32.7 24.6-28.65 28.8-24.6 28.8-16.5L28.8-16.5Q28.8-12.45 27.73-9.35 26.65-6.25 24.63-4.17 22.6-2.1 19.73-1.05 16.85 0 13.2 0L13.2 0ZM9.95-28L9.95-4.7 12.5-4.7Q17.5-4.7 20.18-7.58 22.85-10.45 22.85-16.5L22.85-16.5Q22.85-22.5 20.15-25.25 17.45-28 12.5-28L12.5-28 9.95-28ZM38.15 0.6L38.15 0.6Q36.55 0.6 35.47-0.5 34.4-1.6 34.4-3.3L34.4-3.3Q34.4-5 35.47-6.1 36.55-7.2 38.15-7.2L38.15-7.2Q39.75-7.2 40.8-6.1 41.85-5 41.85-3.3L41.85-3.3Q41.85-1.6 40.8-0.5 39.75 0.6 38.15 0.6ZM62.85 0.6L62.85 0.6Q59.55 0.6 56.72-0.5 53.9-1.6 51.82-3.75 49.75-5.9 48.6-9.05 47.45-12.2 47.45-16.25L47.45-16.25Q47.45-20.25 48.65-23.43 49.85-26.6 51.92-28.8 54-31 56.82-32.15 59.65-33.3 62.9-33.3L62.9-33.3Q66.4-33.3 68.82-32.02 71.25-30.75 72.8-29.15L72.8-29.15 69.7-25.4Q68.45-26.6 66.92-27.43 65.4-28.25 63.1-28.25L63.1-28.25Q60.9-28.25 59.12-27.43 57.35-26.6 56.07-25.08 54.8-23.55 54.1-21.35 53.4-19.15 53.4-16.4L53.4-16.4Q53.4-10.8 55.92-7.63 58.45-4.45 63.4-4.45L63.4-4.45Q64.8-4.45 66.05-4.83 67.3-5.2 68.09-5.9L68.09-5.9 68.09-12.95 61.9-12.95 61.9-17.7 73.3-17.7 73.3-3.3Q71.65-1.65 68.92-0.53 66.2 0.6 62.85 0.6ZM83.29 0.6L83.29 0.6Q81.69 0.6 80.62-0.5 79.54-1.6 79.54-3.3L79.54-3.3Q79.54-5 80.62-6.1 81.69-7.2 83.29-7.2L83.29-7.2Q84.89-7.2 85.94-6.1 86.99-5 86.99-3.3L86.99-3.3Q86.99-1.6 85.94-0.5 84.89 0.6 83.29 0.6Z" opacity="1" transform="matrix(1,0,0,1,0,0)" fill="#ffffff" class="wordmark-text-0" data-fill-palette-color="quaternary" id="text-0"></path></svg></g></svg></g></svg></g></svg></g><g></g></svg></g></svg></g></svg></g></svg></g><defs></defs></svg><rect width="342.85155851775386" height="342.85155851775386" fill="none" stroke="none" visibility="hidden"></rect></g></svg></g></svg>